{
  "accessors": [
    {
      "bufferView": 2,
      "componentType": 5126,
      "count": 6254,
      "max": [
        31.243223190307617,
        31.781181335449219,
        65.883232116699219
      ],
      "min": [
        -31.22899055480957,
        -34.291557312011719,
        24.257534027099609
      ],
      "type": "VEC3"
    },
    {
      "bufferView": 2,
      "byteOffset": 75048,
      "componentType": 5126,
      "count": 6254,
      "max": [
        0.9999079704284668,
        0.99998080730438232,
        0.99999678134918213
      ],
      "min": [
        -0.99961346387863159,
        -0.99973315000534058,
        -0.99999737739562988
      ],
      "type": "VEC3"
    },
    {
      "bufferView": 3,
      "componentType": 5126,
      "count": 6254,
      "max": [
        0.99999892711639404,
        0.99994432926177979,
        0.99973320960998535,
        1
      ],
      "min": [
        -0.99999862909317017,
        -0.99991077184677124,
        -0.97831892967224121,
        -1
      ],
      "type": "VEC4"
    },
    {
      "bufferView": 1,
      "componentType": 5126,
      "count": 6254,
      "max": [
        4.5413818359375,
        2.3313069343566895
      ],
      "min": [
        -3.7213609218597412,
        -2.016016960144043
      ],
      "type": "VEC2"
    },
    {
      "bufferView": 0,
      "componentType": 5125,
      "count": 35880,
      "max": [
        6253
      ],
      "min": [
        0
      ],
      "type": "SCALAR"
    },
    {
      "bufferView": 2,
      "byteOffset": 150096,
      "componentType": 5126,
      "count": 4777,
      "max": [
        30.773828506469727,
        34.000556945800781,
        71.445762634277344
      ],
      "min": [
        -30.834877014160156,
        -0.41631600260734558,
        31.134628295898438
      ],
      "type": "VEC3"
    },
    {
      "bufferView": 2,
      "byteOffset": 207420,
      "componentType": 5126,
      "count": 4777,
      "max": [
        0.99982458353042603,
        0.9992142915725708,
        0.99999737739562988
      ],
      "min": [
        -0.99991965293884277,
        -0.99983805418014526,
        -0.9739149808883667
      ],
      "type": "VEC3"
    },
    {
      "bufferView": 3,
      "byteOffset": 100064,
      "componentType": 5126,
      "count": 4777,
      "max": [
        0.99657171964645386,
        0.99919432401657104,
        0.99886912107467651,
        1
      ],
      "min": [
        -0.99972200393676758,
        -0.99746161699295044,
        -0.99885278940200806,
        -1
      ],
      "type": "VEC4"
    },
    {
      "bufferView": 1,
      "byteOffset": 50032,
      "componentType": 5126,
      "count": 4777,
      "max": [
        2.3938241004943848,
        2.1625659465789795
      ],
      "min": [
        -2.0853259563446045,
        -1.2260750532150269
      ],
      "type": "VEC2"
    },
    {
      "bufferView": 0,
      "byteOffset": 143520,
      "componentType": 5125,
      "count": 26826,
      "max": [
        4776
      ],
      "min": [
        0
      ],
      "type": "SCALAR"
    },
    {
      "bufferView": 2,
      "byteOffset": 264744,
      "componentType": 5126,
      "count": 3654,
      "max": [
        30.190277099609375,
        24.85595703125,
        50.109966278076172
      ],
      "min": [
        -30.190277099609375,
        -32.885417938232422,
        -0.0070290002040565014
      ],
      "type": "VEC3"
    },
    {
      "bufferView": 2,
      "byteOffset": 308592,
      "componentType": 5126,
      "count": 3654,
      "max": [
        1,
        1,
        1
      ],
      "min": [
        -1,
        -1,
        -1
      ],
      "type": "VEC3"
    },
    {
      "bufferView": 3,
      "byteOffset": 176496,
      "componentType": 5126,
      "count": 3654,
      "max": [
        1,
        1,
        0.9999997615814209,
        1
      ],
      "min": [
        -1,
        -1,
        -1,
        -1
      ],
      "type": "VEC4"
    },
    {
      "bufferView": 1,
      "byteOffset": 88248,
      "componentType": 5126,
      "count": 3654,
      "max": [
        1.8529230356216431,
        2.1364209651947021
      ],
      "min": [
        -0.95330202579498291,
        -1.2228410243988037
      ],
      "type": "VEC2"
    },
    {
      "bufferView": 0,
      "byteOffset": 250824,
      "componentType": 5125,
      "count": 10620,
      "max": [
        3653
      ],
      "min": [
        0
      ],
      "type": "SCALAR"
    }
  ],
  "asset": {
    "extras": {
      "author": "Interiors3D (https://sketchfab.com/Interiors3D)",
      "license": "CC-BY-4.0 (http://creativecommons.org/licenses/by/4.0/)",
      "source": "https://sketchfab.com/3d-models/caab00-dafbaf76b3c04005b3756e562c02e161",
      "title": "CAAB00"
    },
    "generator": "Sketchfab-7.17.0",
    "version": "2.0"
  },
  "bufferViews": [
    {
      "buffer": 0,
      "byteLength": 293304,
      "byteOffset": 0,
      "name": "floatBufferViews",
      "target": 34963
    },
    {
      "buffer": 0,
      "byteLength": 117480,
      "byteOffset": 293304,
      "byteStride": 8,
      "name": "floatBufferViews",
      "target": 34962
    },
    {
      "buffer": 0,
      "byteLength": 352440,
      "byteOffset": 410784,
      "byteStride": 12,
      "name": "floatBufferViews",
      "target": 34962
    },
    {
      "buffer": 0,
      "byteLength": 234960,
      "byteOffset": 763224,
      "byteStride": 16,
      "name": "floatBufferViews",
      "target": 34962
    }
  ],
  "buffers": [
    {
      "byteLength": 998184,
      "uri": "scene.bin"
    }
  ],
  "images": [
    {
      "uri": "textures/Fabric_baseColor.jpeg"
    },
    {
      "uri": "textures/Fabric_metallicRoughness.png"
    },
    {
      "uri": "textures/Fabric_normal.png"
    },
    {
      "uri": "textures/Wood_baseColor.jpeg"
    },
    {
      "uri": "textures/Wood_metallicRoughness.png"
    },
    {
      "uri": "textures/Wood_normal.png"
    }
  ],
  "materials": [
    {
      "doubleSided": true,
      "emissiveFactor": [
        0,
        0,
        0
      ],
      "name": "Fabric",
      "normalTexture": {
        "index": 2,
        "scale": 1,
        "texCoord": 0
      },
      "pbrMetallicRoughness": {
        "baseColorFactor": [
          1,
          1,
          1,
          1
        ],
        "baseColorTexture": {
          "index": 0,
          "texCoord": 0
        },
        "metallicFactor": 0,
        "metallicRoughnessTexture": {
          "index": 1,
          "texCoord": 0
        },
        "roughnessFactor": 1
      }
    },
    {
      "doubleSided": true,
      "emissiveFactor": [
        0,
        0,
        0
      ],
      "name": "Wood",
      "normalTexture": {
        "index": 5,
        "scale": 1,
        "texCoord": 0
      },
      "pbrMetallicRoughness": {
        "baseColorFactor": [
          1,
          1,
          1,
          1
        ],
        "baseColorTexture": {
          "index": 3,
          "texCoord": 0
        },
        "metallicFactor": 0,
        "metallicRoughnessTexture": {
          "index": 4,
          "texCoord": 0
        },
        "roughnessFactor": 1
      }
    }
  ],
  "meshes": [
    {
      "primitives": [
        {
          "attributes": {
            "NORMAL": 1,
            "POSITION": 0,
            "TANGENT": 2,
            "TEXCOORD_0": 3
          },
          "indices": 4,
          "material": 0,
          "mode": 4
        }
      ]
    },
    {
      "primitives": [
        {
          "attributes": {
            "NORMAL": 6,
            "POSITION": 5,
            "TANGENT": 7,
            "TEXCOORD_0": 8
          },
          "indices": 9,
          "material": 0,
          "mode": 4
        }
      ]
    },
    {
      "primitives": [
        {
          "attributes": {
            "NORMAL": 11,
            "POSITION": 10,
            "TANGENT": 12,
            "TEXCOORD_0": 13
          },
          "indices": 14,
          "material": 1,
          "mode": 4
        }
      ]
    }
  ],
  "nodes": [
    {
      "children": [
        1
      ],
      "name": "RootNode (gltf orientation matrix)",
      "rotation": [
        -0.70710678118654746,
        -0,
        -0,
        0.70710678118654757
      ]
    },
    {
      "children": [
        2
      ],
      "name": "RootNode (model correction matrix)"
    },
    {
      "children": [
        3,
        4,
        5
      ],
      "name": "10 - CAAB00 - Sketchfab - mesh.obj.cleaner.materialmerger.gles"
    },
    {
      "mesh": 0,
      "name": ""
    },
    {
      "mesh": 1,
      "name": ""
    },
    {
      "mesh": 2,
      "name": ""
    }
  ],
  "samplers": [
    {
      "magFilter": 9729,
      "minFilter": 9987,
      "wrapS": 10497,
      "wrapT": 10497
    }
  ],
  "scene": 0,
  "scenes": [
    {
      "name": "OSG_Scene",
      "nodes": [
        0
      ]
    }
  ],
  "textures": [
    {
      "sampler": 0,
      "source": 0
    },
    {
      "sampler": 0,
      "source": 1
    },
    {
      "sampler": 0,
      "source": 2
    },
    {
      "sampler": 0,
      "source": 3
    },
    {
      "sampler": 0,
      "source": 4
    },
    {
      "sampler": 0,
      "source": 5
    }
  ]
}

